<svg width="24" height="23" viewBox="0 0 24 23" fill="none" xmlns="http://www.w3.org/2000/svg">
<path fill-rule="evenodd" clip-rule="evenodd" d="M21.6004 11.5C21.6004 13.94 20.589 16.2801 18.7886 18.0054C16.9883 19.7308 14.5465 20.7 12.0004 20.7C9.45431 20.7 7.01251 19.7308 5.21217 18.0054C3.41182 16.2801 2.40039 13.94 2.40039 11.5C2.40039 9.06006 3.41182 6.72 5.21217 4.99467C7.01251 3.26933 9.45431 2.30005 12.0004 2.30005C14.5465 2.30005 16.9883 3.26933 18.7886 4.99467C20.589 6.72 21.6004 9.06006 21.6004 11.5ZM13.2004 6.90005C13.2004 7.20505 13.074 7.49755 12.8489 7.71322C12.6239 7.92889 12.3187 8.05005 12.0004 8.05005C11.6821 8.05005 11.3769 7.92889 11.1519 7.71322C10.9268 7.49755 10.8004 7.20505 10.8004 6.90005C10.8004 6.59505 10.9268 6.30254 11.1519 6.08688C11.3769 5.87121 11.6821 5.75005 12.0004 5.75005C12.3187 5.75005 12.6239 5.87121 12.8489 6.08688C13.074 6.30254 13.2004 6.59505 13.2004 6.90005ZM10.8004 10.35C10.5617 10.35 10.3328 10.4409 10.164 10.6027C9.99521 10.7644 9.90039 10.9838 9.90039 11.2125C9.90039 11.4413 9.99521 11.6607 10.164 11.8224C10.3328 11.9842 10.5617 12.075 10.8004 12.075H11.104C11.1489 12.0751 11.1932 12.0847 11.2337 12.1033C11.2741 12.122 11.3097 12.149 11.3378 12.1826C11.3659 12.2161 11.3858 12.2553 11.396 12.2972C11.4062 12.3391 11.4065 12.3826 11.3968 12.4246L10.846 14.8005C10.7777 15.0948 10.7792 15.4001 10.8505 15.6937C10.9218 15.9873 11.0611 16.2618 11.2579 16.497C11.4548 16.7321 11.7043 16.9219 11.9879 17.0522C12.2716 17.1826 12.5822 17.2502 12.8968 17.25H13.2004C13.4391 17.25 13.668 17.1592 13.8368 16.9974C14.0056 16.8357 14.1004 16.6163 14.1004 16.3875C14.1004 16.1588 14.0056 15.9394 13.8368 15.7777C13.668 15.6159 13.4391 15.525 13.2004 15.525H12.8968C12.8519 15.525 12.8076 15.5154 12.7671 15.4967C12.7266 15.4781 12.691 15.4511 12.6629 15.4175C12.6348 15.384 12.615 15.3448 12.6048 15.3029C12.5946 15.261 12.5943 15.2175 12.604 15.1754L13.1548 12.7995C13.2231 12.5053 13.2215 12.2 13.1502 11.9064C13.0789 11.6128 12.9397 11.3382 12.7428 11.1031C12.546 10.868 12.2965 10.6782 12.0128 10.5479C11.7292 10.4175 11.4186 10.3499 11.104 10.35H10.8004Z" fill="#E50012"/>
</svg>
