<svg width="45" height="44" viewBox="0 0 45 44" fill="none" xmlns="http://www.w3.org/2000/svg">
<g style="mix-blend-mode:multiply" opacity="0.8">
<path d="M22.1939 0C10.1068 0 0.306152 9.85089 0.306152 22C0.306152 34.1491 10.1068 44 22.1939 44C34.281 44 44.0817 34.1491 44.0817 22C44.0817 9.85089 34.281 0 22.1939 0ZM30.8904 27.2545H28.599C28.1007 27.2545 27.6268 27.0138 27.3336 26.6062L22.1939 19.4661L17.0542 26.6062C16.7611 27.0138 16.292 27.2545 15.7888 27.2545H13.4974C13.1799 27.2545 12.9942 26.8911 13.1799 26.6308L21.8763 14.5504C22.0327 14.3344 22.3503 14.3344 22.5066 14.5504L31.2031 26.6308C31.3936 26.8911 31.208 27.2545 30.8904 27.2545Z" fill="black"/>
</g>
</svg>
