<svg width="83" height="83" viewBox="0 0 83 83" fill="none" xmlns="http://www.w3.org/2000/svg">
<path d="M82.88 0H0V82.88H82.88V0Z" fill="#E50012"/>
<path d="M51.1362 29.7524C48.0558 26.672 44.2221 25.9261 43.8491 25.6576C43.3121 25.2772 43.2525 25.1579 43.2748 24.4717L43.3569 23.7781C43.4165 22.4355 42.5663 21.6225 41.44 21.6225C40.3138 21.6225 39.4635 22.4355 39.5232 23.7781L39.6052 24.4717C39.6276 25.1579 39.5679 25.2772 39.0309 25.6576C38.658 25.9261 34.8242 26.672 31.7438 29.7524C30.2596 31.2367 27.9549 34.9212 26.8286 38.5237L26.948 38.6654C28.9319 36.2265 31.3858 33.9516 33.9367 32.4972C36.2041 31.2143 38.4118 30.8041 39.6201 30.5579C40.1348 30.4535 41.0074 30.3416 41.4326 30.3416C41.8577 30.3416 42.7304 30.4535 43.245 30.5579C44.4533 30.8041 46.661 31.2143 48.9285 32.4972C51.4793 33.9441 53.9332 36.2265 55.9172 38.6654L56.0365 38.5237C54.9252 34.9212 52.6205 31.2367 51.1362 29.7524Z" fill="white"/>
<path d="M52.3226 18.6092C50.2118 16.4462 46.3632 15.4095 44.7969 14.8426C43.6184 14.3578 43.4618 14.0968 43.5215 12.9183C43.5364 12.6573 43.6856 11.8667 43.7005 11.5161C43.7602 10.1214 42.7159 9.03986 41.4405 9.03986C40.1651 9.03986 39.1209 10.1214 39.1806 11.5161C39.1955 11.8667 39.3447 12.6573 39.3596 12.9183C39.4192 14.0893 39.2701 14.3578 38.0842 14.8426C36.5178 15.4095 32.6692 16.4462 30.5584 18.6092C28.7833 20.4963 27.575 23.2634 26.9634 29.4541H27.1648C28.0449 27.1344 29.1338 25.4488 30.1557 24.3897C32.7662 21.7493 37.6217 20.8617 38.569 20.4515C39.4192 20.0189 39.5237 19.8325 39.4789 18.9076C39.4715 18.7808 39.3596 18.0424 39.3521 17.8708C39.2924 16.5059 40.2322 15.5661 41.4331 15.5661C42.6339 15.5661 43.5737 16.5059 43.514 17.8708C43.5066 18.0424 43.3947 18.7808 43.3872 18.9076C43.3425 19.825 43.4543 20.0189 44.2972 20.4515C45.2444 20.8617 50.1 21.7493 52.7105 24.3897C53.7398 25.4488 54.8213 27.1344 55.7014 29.4541H55.9028C55.3061 23.2634 54.0978 20.4963 52.3226 18.6092Z" fill="white"/>
<path d="M43.1928 35.3538L43.2151 33.3698H39.6276L39.6872 35.3538C39.6872 44.9157 30.998 49.4729 23.6587 52.2774L28.5963 55.8202C31.2963 54.8655 39.1129 49.2865 42.0591 41.2759C43.0511 46.4895 47.8395 52.5906 51.8298 55.0296C52.3445 55.3429 53.053 55.5517 53.6199 55.5517C54.3508 55.5517 55.2608 54.9699 55.6188 54.5075C57.2224 52.434 56.6854 51.9343 59.3705 51.8448L59.4301 51.6807C52.5682 49.1 43.1928 44.9754 43.1928 35.3538Z" fill="white"/>
<path d="M26.2097 68.3656C26.2097 71.3639 24.4346 72.8258 21.4661 72.8258C18.4826 72.8258 16.7373 71.3788 16.7373 68.3656V61.4664H19.1763V68.3656C19.1763 69.5813 19.4895 70.7747 21.4586 70.7747C23.1965 70.7747 23.7558 70.0139 23.7558 68.3656V61.4664H26.1948V68.3656H26.2097Z" fill="white"/>
<path d="M28.1714 66.3667H32.2139V67.3587H28.1714V66.3667Z" fill="white"/>
<path d="M41.8802 65.1957C41.7236 64.0918 40.6644 63.249 39.4561 63.249C37.2633 63.249 36.4429 65.1136 36.4429 67.0603C36.4429 68.9101 37.2708 70.7747 39.4561 70.7747C40.9479 70.7747 41.7907 69.7454 41.9772 68.291H44.3415C44.0954 71.0581 42.1785 72.8333 39.4636 72.8333C36.0252 72.8333 34.0039 70.2675 34.0039 67.0678C34.0039 63.7711 36.0252 61.2053 39.4636 61.2053C41.9026 61.2053 43.9537 62.6374 44.252 65.2031H41.8802V65.1957Z" fill="white"/>
<path d="M49.033 61.4664H51.539L55.6935 72.5648H53.1576L52.3147 70.096H48.1603L47.2876 72.5648H44.8188L49.033 61.4664ZM48.8017 68.2761H51.6808L50.2785 64.2037H50.2487L48.8017 68.2761Z" fill="white"/>
<path d="M56.7305 61.4664H59.1545L63.7863 68.91H63.8161V61.4664H66.0985V72.5648H63.6595L59.0426 65.136H59.0128V72.5648H56.7305V61.4664Z" fill="white"/>
</svg>
