<svg width="270" height="38" viewBox="0 0 270 38" fill="none" xmlns="http://www.w3.org/2000/svg">
<path d="M269.995 1.45312L263.818 37H256.885L247.046 12.9033L242.871 37H235.718L241.87 1.45312H248.828L258.691 25.5742L262.866 1.45312H269.995Z" fill="#E50012"/>
<path d="M222.217 7.89844L207.91 37H200.049L219.043 1.45312H224.072L222.217 7.89844ZM225.049 37L220.703 7.1416L220.972 1.45312H225.684L232.397 37H225.049ZM226.855 23.7676L225.854 29.5049H207.568L208.569 23.7676H226.855Z" fill="#E50012"/>
<path d="M193.262 25.2322L200.244 25.1345C199.935 27.755 199.048 30.0011 197.583 31.8728C196.135 33.7283 194.312 35.1443 192.114 36.1208C189.917 37.0811 187.533 37.5369 184.961 37.488C182.585 37.4392 180.583 36.9347 178.955 35.9744C177.328 34.9978 176.05 33.6957 175.122 32.0681C174.195 30.4405 173.584 28.6257 173.291 26.6238C172.998 24.6218 172.982 22.571 173.242 20.4714L173.584 18.0056C173.91 15.7921 174.504 13.6518 175.366 11.5847C176.245 9.51766 177.393 7.67847 178.809 6.06714C180.225 4.45581 181.901 3.18628 183.838 2.25854C185.775 1.33081 187.972 0.891357 190.43 0.940186C193.002 0.989014 195.174 1.5424 196.948 2.60034C198.739 3.64201 200.114 5.09871 201.074 6.97046C202.051 8.82593 202.596 10.9988 202.71 13.489L195.606 13.4646C195.622 12.1462 195.459 10.9906 195.117 9.9978C194.792 8.98869 194.222 8.20744 193.408 7.65405C192.595 7.08439 191.472 6.77515 190.039 6.72632C188.477 6.67749 187.15 6.98673 186.06 7.65405C184.969 8.32137 184.066 9.21655 183.35 10.3396C182.65 11.4626 182.097 12.6915 181.69 14.0261C181.299 15.3608 181.006 16.671 180.811 17.9568L180.469 20.4958C180.339 21.5538 180.249 22.7257 180.2 24.0115C180.152 25.281 180.257 26.4936 180.518 27.6492C180.778 28.8048 181.283 29.7651 182.031 30.53C182.78 31.2787 183.895 31.6775 185.376 31.7263C186.841 31.7751 188.102 31.5473 189.16 31.0427C190.235 30.5382 191.105 29.7895 191.773 28.7966C192.456 27.8038 192.953 26.6156 193.262 25.2322Z" fill="#E50012"/>
<path d="M168.481 18.9824L167.505 24.5H154.102L155.054 18.9824H168.481Z" fill="#E50012"/>
<path d="M145.508 1.45312H152.637L148.633 24.915C148.258 27.5518 147.388 29.8223 146.02 31.7266C144.669 33.6146 142.928 35.0632 140.796 36.0723C138.68 37.0651 136.295 37.5452 133.642 37.5127C131.168 37.4639 129.012 36.9268 127.173 35.9014C125.35 34.8597 123.983 33.4111 123.071 31.5557C122.16 29.6839 121.859 27.4785 122.168 24.9395L126.172 1.45312H133.301L129.321 24.9639C129.175 26.1846 129.215 27.3076 129.443 28.333C129.687 29.3421 130.176 30.1641 130.908 30.7988C131.657 31.4173 132.715 31.7428 134.082 31.7754C135.53 31.8242 136.767 31.5638 137.793 30.9941C138.818 30.4245 139.64 29.6188 140.259 28.5771C140.877 27.5192 141.292 26.3066 141.504 24.9395L145.508 1.45312Z" fill="#E50012"/>
<path d="M104.932 31.2871L103.931 37H86.5234L87.5244 31.2871H104.932ZM95.0439 1.45312L88.8672 37H81.7139L87.8662 1.45312H95.0439Z" fill="#E50012"/>
<path d="M78.6133 31.2871L77.6123 37H59.2285L60.2051 31.2871H78.6133ZM67.749 1.45312L61.5723 37H54.4189L60.5713 1.45312H67.749ZM78.8818 15.9307L77.9053 21.4971H61.9141L62.8906 15.9307H78.8818ZM83.7402 1.45312L82.7393 7.19043H64.3799L65.4053 1.45312H83.7402Z" fill="#E50012"/>
<path d="M51.3184 31.2871L50.3174 37H31.9336L32.9102 31.2871H51.3184ZM40.4541 1.45312L34.2773 37H27.124L33.2764 1.45312H40.4541ZM51.5869 15.9307L50.6104 21.4971H34.6191L35.5957 15.9307H51.5869ZM56.4453 1.45312L55.4443 7.19043H37.085L38.1104 1.45312H56.4453Z" fill="#E50012"/>
<path d="M13.8428 1.45312L7.66602 37H0.512695L6.66504 1.45312H13.8428ZM24.9512 16.6387L23.9502 22.3516H8.22754L9.22852 16.6387H24.9512ZM29.2236 1.45312L28.2471 7.19043H10.8643L11.8652 1.45312H29.2236Z" fill="#E50012"/>
</svg>
