<svg width="358" height="190" viewBox="0 0 358 190" fill="none" xmlns="http://www.w3.org/2000/svg">
<path d="M339.7 180.345C339.662 177.755 340.519 175.622 342.271 173.946C344.061 172.271 346.232 171.433 348.783 171.433C351.221 171.395 353.316 172.156 355.068 173.718C356.858 175.241 357.772 177.26 357.81 179.773C357.848 182.363 356.972 184.496 355.182 186.172C353.43 187.848 351.278 188.686 348.726 188.686C346.289 188.724 344.175 187.981 342.385 186.458C340.633 184.896 339.738 182.858 339.7 180.345Z" fill="#E50012"/>
<path d="M340.954 104.82L326.501 188H310.276L287.253 131.614L277.484 188H260.745L275.142 104.82H291.424L314.504 161.264L324.273 104.82H340.954Z" fill="#E50012"/>
<path d="M231.493 119.902L198.016 188H179.62L224.066 104.82H235.835L231.493 119.902ZM238.12 188L227.951 118.131L228.58 104.82H239.605L255.316 188H238.12ZM242.348 157.036L240.005 170.461H197.216L199.558 157.036H242.348Z" fill="#E50012"/>
<path d="M166.078 160.464L182.417 160.235C181.694 166.367 179.618 171.623 176.19 176.003C172.8 180.345 168.535 183.658 163.393 185.943C158.252 188.19 152.672 189.257 146.654 189.143C141.094 189.028 136.409 187.848 132.601 185.601C128.792 183.315 125.802 180.269 123.632 176.46C121.461 172.651 120.032 168.405 119.347 163.72C118.661 159.036 118.623 154.237 119.233 149.324L120.032 143.554C120.794 138.374 122.184 133.366 124.203 128.529C126.259 123.692 128.945 119.388 132.258 115.618C135.571 111.847 139.494 108.876 144.027 106.706C148.559 104.535 153.7 103.506 159.451 103.621C165.469 103.735 170.553 105.03 174.705 107.505C178.894 109.943 182.112 113.352 184.36 117.731C186.645 122.073 187.921 127.158 188.187 132.985L171.563 132.928C171.601 129.843 171.22 127.139 170.42 124.815C169.658 122.454 168.325 120.626 166.421 119.331C164.517 117.998 161.889 117.274 158.537 117.16C154.881 117.046 151.777 117.77 149.225 119.331C146.674 120.893 144.56 122.987 142.884 125.615C141.246 128.243 139.951 131.119 138.999 134.242C138.085 137.365 137.4 140.431 136.943 143.439L136.143 149.381C135.838 151.856 135.629 154.599 135.514 157.607C135.4 160.578 135.648 163.416 136.257 166.12C136.866 168.824 138.047 171.071 139.799 172.861C141.551 174.613 144.16 175.546 147.626 175.66C151.053 175.774 154.005 175.241 156.481 174.061C158.994 172.88 161.032 171.128 162.593 168.805C164.193 166.481 165.355 163.701 166.078 160.464Z" fill="#E50012"/>
<path d="M110.432 145.839L108.147 158.75H76.7835L79.0116 145.839H110.432Z" fill="#E50012"/>
<path d="M59.0142 104.82H75.6958L66.3267 159.721C65.4507 165.891 63.4131 171.204 60.2139 175.66C57.0527 180.078 52.9775 183.468 47.9883 185.829C43.0371 188.152 37.4575 189.276 31.2495 189.2C25.4604 189.085 20.4141 187.829 16.1104 185.429C11.8447 182.992 8.64551 179.602 6.5127 175.26C4.37988 170.88 3.67529 165.72 4.39893 159.778L13.7681 104.82H30.4497L21.1377 159.835C20.7949 162.692 20.8901 165.32 21.4233 167.719C21.9946 170.081 23.1372 172.004 24.8511 173.489C26.603 174.937 29.0786 175.698 32.2778 175.774C35.6675 175.889 38.562 175.279 40.9614 173.946C43.3608 172.613 45.2842 170.728 46.7314 168.291C48.1787 165.815 49.1499 162.978 49.645 159.778L59.0142 104.82Z" fill="#E50012"/>
<path d="M237.32 70.6318L234.978 84H194.245L196.587 70.6318H237.32ZM214.183 0.820312L199.73 84H182.991L197.387 0.820312H214.183Z" fill="#E50012"/>
<path d="M178.075 70.6318L175.733 84H132.715L135 70.6318H178.075ZM152.653 0.820312L138.199 84H121.461L135.857 0.820312H152.653ZM178.704 34.6978L176.419 47.7231H138.999L141.284 34.6978H178.704ZM190.072 0.820312L187.73 14.2456H144.769L147.169 0.820312H190.072Z" fill="#E50012"/>
<path d="M116.545 70.6318L114.203 84H71.1849L73.4701 70.6318H116.545ZM91.1229 0.820312L76.6693 84H59.9305L74.327 0.820312H91.1229ZM117.174 34.6978L114.889 47.7231H77.4691L79.7542 34.6978H117.174ZM128.542 0.820312L126.2 14.2456H83.2391L85.6385 0.820312H128.542Z" fill="#E50012"/>
<path d="M31.1924 0.820312L16.7388 84H0L14.3965 0.820312H31.1924ZM57.186 36.3545L54.8438 49.7227H18.0527L20.395 36.3545H57.186ZM67.1836 0.820312L64.8984 14.2456H24.2227L26.5649 0.820312H67.1836Z" fill="#E50012"/>
</svg>
